:version 1.10
:name ASF
:units
  mass 1
  length 1
  angle deg
:documentation
  ASF file generated by Kaydara
:root
  axis xyz
  order  tx ty tz rx ry rz
  position 0 0 0
  orientation 0 0 0
:bonedata
  begin
    id 1
    name SpineDummy
    direction 0.999998 -0.00179978 1.38929e-006
    length 3.60008
    axis 0 0 0 xyz
  end
  begin
    id 2
    name Spine
    direction 0.964365 0.262802 0.0305839
    length 8.13928
    axis 1.33928 -1.75354 15.2838 xyz
    dof rx ry rz
  end
  begin
    id 3
    name Spine1
    direction 0.811168 0.572065 0.12144
    length 7.14954
    axis 2.2224 -6.9761 35.2157 xyz
    dof rx ry rz
  end
  begin
    id 4
    name Neck
    direction 0 0 0
    length 0
    axis 2.2224 -6.9761 35.2157 xyz
    dof rx ry rz
  end
  begin
    id 5
    name HeadDummy
    direction 0.810939 0.572387 0.121455
    length 3.55534
    axis 2.2224 -6.9761 35.2157 xyz
  end
  begin
    id 6
    name Head
    direction 0.998226 -0.000232542 0.0595419
    length 7.35666
    axis -3.03688 -3.41352 -0.0133467 xyz
    dof rx ry rz
  end
  begin
    id 7
    name R_ClavicleDummy
    direction 0.531669 -0.194489 -0.824319
    length 2.49392
    axis 2.2224 -6.9761 35.2157 xyz
  end
  begin
    id 8
    name R_Clavicle
    direction -0.155119 0.0480802 -0.986725
    length 4.485
    axis -54.2764 80.6538 162.779 xyz
    dof rx ry rz
  end
  begin
    id 9
    name R_UpperArm
    direction -0.955567 0.200068 -0.216484
    length 10.1122
    axis -72.9943 12.5026 168.175 xyz
    dof rx ry rz
  end
  begin
    id 10
    name R_Forearm
    direction -0.61433 0.385743 0.688332
    length 9.39148
    axis -117.015 -43.4982 147.875 xyz
    dof rx ry rz
  end
  begin
    id 11
    name R_Hand
    direction -0.699429 0.0170333 0.714499
    length 3.66324
    axis -45.0303 -36.7097 175.478 xyz
    dof rx ry rz
  end
  begin
    id 12
    name L_ClavicleDummy
    direction 0.40287 -0.36502 0.839319
    length 2.49392
    axis 2.2224 -6.9761 35.2157 xyz
  end
  begin
    id 13
    name L_Clavicle
    direction -0.231271 -0.0726419 0.970174
    length 4.485
    axis 18.4357 -75.9711 -162.563 xyz
    dof rx ry rz
  end
  begin
    id 14
    name L_UpperArm
    direction -0.917494 0.144359 0.370629
    length 10.1122
    axis 56.0417 -21.7544 171.058 xyz
    dof rx ry rz
  end
  begin
    id 15
    name L_Forearm
    direction -0.496786 0.615074 -0.612281
    length 9.39148
    axis 89.8094 37.7546 128.927 xyz
    dof rx ry rz
  end
  begin
    id 16
    name L_Hand
    direction -0.409932 0.64962 -0.640274
    length 3.66324
    axis -0.424369 32.133 128.52 xyz
    dof rx ry rz
  end
  begin
    id 17
    name L_ThighDummy
    direction -1.84081e-006 1.87549e-006 1
    length 3.13049
    axis 0 0 0 xyz
  end
  begin
    id 18
    name L_Thigh
    direction -0.947739 0.307978 0.083308
    length 17.9961
    axis 173.219 -4.77873 161.998 xyz
    dof rx ry rz
  end
  begin
    id 19
    name L_Calf
    direction -0.728814 -0.684427 0.0197583
    length 13.3367
    axis 167.331 -1.13214 -136.799 xyz
    dof rx ry rz
  end
  begin
    id 20
    name L_Foot
    direction -0.9028 0.418719 0.0981191
    length 5.8674
    axis 163.436 11.5135 -155.37 xyz
    dof rx ry rz
  end
  begin
    id 21
    name L_Toe0
    direction -0.35341 0.886259 0.299411
    length 4.75286
    axis 169.316 -17.4222 111.74 xyz
    dof rx ry rz
  end
  begin
    id 22
    name R_ThighDummy
    direction 9.32778e-007 -8.82053e-007 -1
    length 3.13049
    axis 0 0 0 xyz
  end
  begin
    id 23
    name R_Thigh
    direction -0.925064 0.37528 -0.0585023
    length 17.9961
    axis -178.698 3.35385 157.919 xyz
    dof rx ry rz
  end
  begin
    id 24
    name R_Calf
    direction -0.68969 -0.718776 -0.0876886
    length 13.3367
    axis -160.504 5.03065 -133.817 xyz
    dof rx ry rz
  end
  begin
    id 25
    name R_Foot
    direction -0.857405 0.418858 -0.299022
    length 5.8674
    axis -161.328 4.38911 -154.413 xyz
    dof rx ry rz
  end
  begin
    id 26
    name R_Toe0
    direction -0.100745 0.952789 -0.286433
    length 4.75286
    axis 171.683 16.6445 96.0359 xyz
    dof rx ry rz
  end
:hierarchy
  begin
    root SpineDummy L_ThighDummy R_ThighDummy
    SpineDummy Spine
    Spine Spine1
    Spine1 Neck
    Neck HeadDummy R_ClavicleDummy L_ClavicleDummy
    HeadDummy Head
    R_ClavicleDummy R_Clavicle
    R_Clavicle R_UpperArm
    R_UpperArm R_Forearm
    R_Forearm R_Hand
    L_ClavicleDummy L_Clavicle
    L_Clavicle L_UpperArm
    L_UpperArm L_Forearm
    L_Forearm L_Hand
    L_ThighDummy L_Thigh
    L_Thigh L_Calf
    L_Calf L_Foot
    L_Foot L_Toe0
    R_ThighDummy R_Thigh
    R_Thigh R_Calf
    R_Calf R_Foot
    R_Foot R_Toe0
  end

:SAMPLES-PER-SECOND 30
:FULLY-SPECIFIED
:DEGREES
36
root  2.31892 29.8207 -20.0113 89.2436 18.2085 97.3853
Spine  -7.90337 -8.65995 5.13383
Spine1  -7.3467 18.8564 -4.23557
Neck  3.97569e-016 0 -2.38542e-015
Head  26.4423 -11.1552 20.6739
R_Clavicle  0.445106 -17.6647 2.6821
R_UpperArm  15.5252 -5.25333 26.5923
R_Forearm  14.8561 -20.7017 18.5421
R_Hand  -1.10372 8.60345 -19.7568
L_Clavicle  -0.483129 16.8971 -0.519519
L_UpperArm  -11.0588 3.81753 12.5379
L_Forearm  -10.1623 31.9814 37.6098
L_Hand  -0.0956089 2.88981 -1.12648
L_Thigh  -2.92704 -8.81947 14.5541
L_Calf  0.758518 -0.232004 1.54886
L_Foot  -0.634735 5.61981 -8.15188
L_Toe0  0.505156 0.034446 -6.1361
R_Thigh  -4.50112 12.129 -6.01813
R_Calf  -14.1469 -0.202489 -0.450555
R_Foot  -6.72928 -21.3926 2.18534
R_Toe0  3.41375 -0.6157 -8.37681
37
root  2.5566 30.0245 -19.5328 79.6981 19.3264 98.5929
Spine  -4.85753 -5.07174 5.67671
Spine1  -4.33461 8.28764 -3.78607
Neck  3.97569e-016 0 -2.38542e-015
Head  26.7953 -11.5822 19.9532
R_Clavicle  0.421947 -16.3701 2.1327
R_UpperArm  15.2668 -2.4947 20.4611
R_Forearm  10.9326 -16.9072 14.5998
R_Hand  -0.984614 7.74183 -18.7382
L_Clavicle  -0.446608 15.8307 -0.790719
L_UpperArm  -17.5183 4.01954 20.6526
L_Forearm  -0.67744 37.1304 40.2529
L_Hand  0.240657 3.5571 3.14143
L_Thigh  -8.81263 -11.2731 13.3349
L_Calf  3.16607 -0.733304 5.32083
L_Foot  -1.7934 1.56025 -10.353
L_Toe0  0.505156 0.034446 -6.1361
R_Thigh  3.09806 8.3215 -2.97706
R_Calf  -13.3072 -1.27741 -3.91213
R_Foot  -2.60911 -22.6626 -12.9139
R_Toe0  -1.82112 1.4614 9.31057
38
root  2.7733 29.8111 -18.8437 71.006 20.6716 99.3109
Spine  -2.10952 -2.44213 5.88057
Spine1  -1.49382 -0.511087 -3.10621
Neck  3.97569e-016 0 -2.38542e-015
Head  27.5353 -11.9037 19.3518
R_Clavicle  0.410634 -13.5305 2.00393
R_UpperArm  14.9559 0.344862 13.4646
R_Forearm  9.89567 -13.5729 11.5406
R_Hand  -1.04305 7.38057 -19.1606
L_Clavicle  -0.40042 14.7222 -1.28073
L_UpperArm  -19.3107 4.32248 28.5567
L_Forearm  10.8044 41.0207 42.9468
L_Hand  0.548522 3.75575 6.83899
L_Thigh  -15.7831 -13.5909 12.7004
L_Calf  7.86804 -0.769866 5.70479
L_Foot  -3.03449 -3.99197 -12.5069
L_Toe0  0.417218 0.040237 -6.21536
R_Thigh  14.0713 3.44576 0.826531
R_Calf  -4.35352 -2.70848 -8.43055
R_Foot  1.50165 -12.3136 -22.515
R_Toe0  -11.9736 7.26489 12.1358
39
root  2.86998 29.2041 -17.9642 61.8795 21.5751 98.5195
Spine  1.03031 0.413518 6.12586
Spine1  1.58079 -7.93713 -3.47631
Neck  3.97569e-016 0 -2.38542e-015
Head  28.6009 -11.8834 19.649
R_Clavicle  0.448698 -10.384 2.39693
R_UpperArm  14.0218 3.92047 6.60451
R_Forearm  12.381 -11.3184 9.54002
R_Hand  -1.14594 7.38237 -19.9908
L_Clavicle  -0.382441 14.5105 -1.97792
L_UpperArm  -19.733 4.94277 37.2339
L_Forearm  20.7569 44.0683 46.2244
L_Hand  0.69003 3.52611 8.77428
L_Thigh  -21.764 -14.7437 12.3822
L_Calf  10.5228 -0.67285 5.06471
L_Foot  -3.14131 -4.30445 -12.8267
L_Toe0  1.33012 -0.0209372 -5.39206
R_Thigh  24.6123 0.648845 2.45837
R_Calf  6.99486 -3.75646 -11.7567
R_Foot  1.38212 -7.16543 -19.7779
R_Toe0  -15.2648 6.57004 5.43352
40
root  2.75482 28.3694 -17.0129 52.5837 22.0492 96.0988
Spine  4.32176 3.66237 7.00343
Spine1  4.61249 -13.9083 -4.23748
Neck  3.97569e-016 0 -2.38542e-015
Head  30.254 -11.3151 19.3507
R_Clavicle  0.536129 -7.36534 3.00145
R_UpperArm  11.9949 8.81026 -0.515937
R_Forearm  16.2238 -10.7071 9.00484
R_Hand  -1.28429 7.42577 -21.1061
L_Clavicle  -0.396807 14.8388 -2.10221
L_UpperArm  -20.0887 6.32062 46.237
L_Forearm  24.8938 45.6397 50.7043
L_Hand  0.631304 2.6745 8.84894
L_Thigh  -23.6458 -15.3716 12.1354
L_Calf  6.52725 -0.387255 2.98905
L_Foot  -0.29416 5.74608 -7.65882
L_Toe0  4.00038 -0.18566 -2.98889
R_Thigh  33.7332 0.124554 1.51342
R_Calf  11.7605 -4.37754 -13.7408
R_Foot  0.858312 -7.1027 -16.6162
R_Toe0  -15.4941 5.88627 3.33154
41
root  2.5088 27.4327 -16.106 45.3391 22.7759 93.22
Spine  6.78254 6.42792 8.08832
Spine1  6.52667 -17.8361 -3.86804
Neck  3.97569e-016 0 -2.38542e-015
Head  32.5169 -10.6559 17.5264
R_Clavicle  0.673635 -4.08971 3.70611
R_UpperArm  9.77165 14.28 -8.34923
R_Forearm  18.4449 -12.2771 10.3836
R_Hand  -1.47425 7.58022 -22.6226
L_Clavicle  -0.412483 14.9837 -1.12706
L_UpperArm  -21.1702 8.1488 53.6353
L_Forearm  24.3887 45.9236 56.0495
L_Hand  0.445044 0.797451 7.99897
L_Thigh  -21.3726 -17.0466 12.048
L_Calf  -4.76777 0.228942 -1.53962
L_Foot  5.2825 17.3939 3.41042
L_Toe0  1.16848 0.0296238 -5.55308
R_Thigh  42.4574 -1.58469 -1.67242
R_Calf  13.9392 -4.965 -15.6231
R_Foot  1.17373 -5.1789 -16.9304
R_Toe0  -13.1798 6.5101 8.38498
42
root  2.36145 26.6214 -15.3271 41.1312 24.276 91.315
Spine  8.26105 8.00636 8.80592
Spine1  7.39461 -19.9011 -2.3868
Neck  3.97569e-016 0 -2.38542e-015
Head  34.6058 -10.6129 15.9246
R_Clavicle  0.874054 -0.904625 4.54702
R_UpperArm  9.11344 18.4668 -14.7996
R_Forearm  17.4634 -15.4747 13.267
R_Hand  -1.54754 8.1484 -23.1095
L_Clavicle  -0.423214 14.8178 0.499361
L_UpperArm  -22.8581 9.30258 57.3646
L_Forearm  24.4811 45.385 60.1653
L_Hand  0.274908 -1.84696 8.01965
L_Thigh  -17.7396 -19.1955 12.8684
L_Calf  -13.3271 1.12193 -7.86348
L_Foot  5.3306 11.6662 7.98799
L_Toe0  0.428668 0.036239 -6.20191
R_Thigh  48.9866 -5.61484 -5.41533
R_Calf  14.7879 -5.94898 -18.8346
R_Foot  1.58588 -1.49248 -16.1639
R_Toe0  -8.39766 5.70091 13.8633
